<?xml version="1.0" encoding="utf-8"?>
<!-- Generator: Adobe Illustrator 16.0.4, SVG Export Plug-In . SVG Version: 6.00 Build 0)  -->
<!DOCTYPE svg PUBLIC "-//W3C//DTD SVG 1.1//EN" "http://www.w3.org/Graphics/SVG/1.1/DTD/svg11.dtd">
<svg version="1.1" id="Layer_1" xmlns="http://www.w3.org/2000/svg" xmlns:xlink="http://www.w3.org/1999/xlink" x="0px" y="0px"
	 width="100px" height="145.3px" viewBox="0 0 100 145.3" style="enable-background:new 0 0 100 145.3;" xml:space="preserve">
<path style="fill:#A4C273;" d="M75.9,138.5H22.7c-8.7,0-15.8-6.4-15.8-14.2V41.6c0-7.8,7.1-14.2,15.8-14.2h53.3
	c8.7,0,15.8,6.4,15.8,14.2v82.7C91.7,132.2,84.6,138.5,75.9,138.5z M22.7,34.3c-4.5,0-8.2,3.3-8.2,7.3v82.7c0,4,3.7,7.3,8.2,7.3
	h53.3c4.5,0,8.2-3.3,8.2-7.3V41.6c0-4-3.7-7.3-8.2-7.3H22.7z M88.5,12.9c0-4.8-3.9-8.7-8.7-8.7H18.8c-4.8,0-8.7,3.9-8.7,8.7l0,0
	c0,4.8,3.9,8.7,8.7,8.7h60.9C84.6,21.7,88.5,17.7,88.5,12.9L88.5,12.9z M66.6,60.1c1.1-1.3,1.8-3.1,1.8-5c0-4.3-3.5-7.8-7.8-7.8
	c-4.1,0-7.5,3.2-7.7,7.3c-1.2-0.1-2.4-0.2-3.7-0.2c-1,0-1.9,0-2.8,0.1c-0.3-4-3.6-7.2-7.7-7.2c-4.3,0-7.8,3.5-7.8,7.8
	c0,1.7,0.6,3.3,1.5,4.6c-3.5,2.7-5.6,6.3-5.6,10.2c0,8.6,10,15.5,22.4,15.5s22.4-6.9,22.4-15.5C71.7,66.2,69.8,62.7,66.6,60.1z
	 M67,115.7c-0.3-0.1-0.5-0.2-0.8-0.3c2.1-0.6,4.2-1.5,5.9-2.9c8.4-6.9,10.7-18.7,6.5-22.9c-3-3-9.4-4.2-15.9-2.2
	c-3.1-4-8-6.6-13.4-6.6c-5.4,0-10.3,2.6-13.4,6.5c-6.8-2-13.6-0.5-16.2,2c-3.5,3.5-1.8,16.1,6.5,22.9c1.4,1.1,2.9,1.9,4.6,2.5
	c-5.4,2.2-6.8,4.1-6.9,4.3c-0.2,0.3-0.2,0.7,0,1c0.2,0.2,0.4,0.3,0.7,0.3c0.1,0,0.2,0,0.3,0l5.6-1.9c-4,2.7-4.9,4.5-5,4.7
	c-0.1,0.3-0.1,0.7,0.2,1c0.2,0.1,0.4,0.2,0.6,0.2c0.1,0,0.3,0,0.4-0.1l8-4.3c-3.1,3.3-3.5,5.2-3.6,5.4c-0.1,0.4,0.1,0.7,0.4,0.9
	c0.1,0.1,0.3,0.1,0.4,0.1c0.2,0,0.4-0.1,0.6-0.2l12.1-10.6c1.4-0.2,2.6-0.5,3.5-0.7c0.4,0,0.9,0.1,1.3,0.1c0.1,0,0.2,0,0.3,0
	c0.9,0.2,2.3,0.6,4,0.8l13.7,12.1c0.2,0.1,0.4,0.2,0.6,0.2c0.1,0,0.3,0,0.4-0.1c0.3-0.2,0.5-0.5,0.4-0.9c0-0.2-0.5-2.1-3.6-5.4
	l8,4.3c0.1,0.1,0.3,0.1,0.4,0.1c0.2,0,0.4-0.1,0.6-0.2c0.3-0.2,0.3-0.6,0.2-1c-0.1-0.2-1-2-5-4.7l5.6,1.9c0.1,0,0.2,0,0.3,0
	c0.3,0,0.5-0.1,0.7-0.3c0.2-0.3,0.2-0.7,0-1C75.6,120.4,73.9,118.2,67,115.7z"/>
<g>
</g>
<g>
</g>
<g>
</g>
<g>
</g>
<g>
</g>
<g>
</g>
<g>
</g>
<g>
</g>
<g>
</g>
<g>
</g>
<g>
</g>
<g>
</g>
<g>
</g>
<g>
</g>
<g>
</g>
</svg>
