<?xml version="1.0" encoding="utf-8"?>
<!-- Generator: Adobe Illustrator 16.0.4, SVG Export Plug-In . SVG Version: 6.00 Build 0)  -->
<!DOCTYPE svg PUBLIC "-//W3C//DTD SVG 1.1//EN" "http://www.w3.org/Graphics/SVG/1.1/DTD/svg11.dtd">
<svg version="1.1" id="Layer_1" xmlns="http://www.w3.org/2000/svg" xmlns:xlink="http://www.w3.org/1999/xlink" x="0px" y="0px"
	 width="48px" height="145.3px" viewBox="0 0 48 145.3" style="enable-background:new 0 0 48 145.3;" xml:space="preserve">
<path style="fill:#A4C374;" d="M24.2,42.4c-5.7,0-11.9,1.4-17.2,3.1C7.3,52,8.2,62,8.1,62.1c-0.1,0.1,0.4,2.1,2.2,1
	c4-4.6,12.5-8,12.8-9.6c0.3-1.5,2.1-2.7,4.8-2.7c2.7,0,4.8,1.3,4.7,2.9c0,1.6-2.2,2.8-4.8,2.8c-0.6,0-1.1-0.2-1.6-0.2
	c-0.8-0.2-9.3,4-9.3,5.8c0.9,1.3,4.8,0.3,5.5-0.2c1.6-0.9,2.9-2.1,5.3-2.1c3.1,0,5.5,1.6,5.4,3.4c-0.1,1.8-2.5,3.3-5.5,3.3
	c-2.2,0-3.9-1.1-5.2-2c-2.4-0.4-5.2-0.3-5.2,0.7c0.2,1.9,9.6,6.8,10.3,6.7c1.4,0,4.5,1.3,4.5,2.9c0,1.6-2.1,2.8-4.5,2.8
	c-2.4,0-4.2-2.2-4.2-3.8c0-4-10.4-7.1-13.1-7.2c-0.9,0-2,1-2,1c0.9,15.1,1.8,28.9,2.7,44c0,0,0.3,3.6,3.8,3.5
	c3.4-0.1,4.4-2.5,9.4-2.5c4.5,0,6.7,2.6,9.2,2.5c3.4-0.1,3.8-3.4,3.8-3.4c0.3-5.2,0.3-9.4,0.6-14.7c-0.2,0-1.3-0.9-2.3-0.9
	c-2.4,0.3-10.9,4.9-11.7,6.6c-0.1,0.7,0.1,0.9,0.1,1.5c0,1.6-1.7,2.8-3.9,2.9c-2.1,0-3.9-1.2-4-2.8c0-1.6,1.7-2.9,3.9-2.9
	c0.2,0,0.3,0,0.5-0.1c2.1-1.1,8-4.5,9-6.5c-0.5-1.4-4.1-1-5.1-0.6c-0.5,0.3-2.5,1.9-4.5,1.9c-2.7,0-4.9-1.4-5-3.3
	c-0.1-1.9,2.1-3.4,4.8-3.4c2.2,0,3.7,1.4,4.8,2.1c2,0.8,4,1.1,4.8,0.3c0.6-1.3-6.4-5.6-8-5.7c-0.8,0-1,0-1.6,0
	c-2.3,0-4.3-1.2-4.3-2.8c-0.1-1.6,1.8-2.9,4.2-2.9c2.4,0,4.3,0.8,4.3,2.4c0,0.1,0,0.7,0.3,1c0.4,0.5,9.5,9.6,11.7,9.5
	c1,0.1,2-1.4,2-1.4s1.9-30,2.8-46.4C35.3,43.7,29.8,42.4,24.2,42.4z"/>
<path style="fill:#333336;" d="M43.1,35.1l-0.4,5.2c0,0-12.2-3.1-18.6-3.1c-6.4,0-19.4,3.1-19.4,3.1l-0.4-5.2c0,0,13.2-3.1,19.7-3.1
	C30.7,32,43.1,35.1,43.1,35.1z"/>
<path style="fill:#D4B696;" d="M5.6,30.8c0,0,12.5-3,18.5-3c6.2,0,17.8,3,17.8,3s0-17.2,0-20.2C42,6,29.8,5.7,24.1,5.7
	c-5.7,0-18.5,0.1-18.5,5.1C5.6,15.9,5.6,30.8,5.6,30.8z"/>
<g>
	<g>
		<path style="fill:#333336;" d="M21.5,130.4c0,0,1.9,3.4,3.5,6.5c0.3,0.6,0,1.8-1.1,1.8c-0.6,0-0.9-0.3-1.2-0.8
			c-1.5-2.5-4.6-8-4.6-8s-1.9-0.5-2.9-0.8c1.7,3,5.1,10.4,8.9,10.4c3.9,0,7.9-8.2,9.3-10.5c-3,0.9-8.3,1.8-9.3,1.7
			C23.2,130.5,21.5,130.4,21.5,130.4z"/>
	</g>
</g>
<g>
</g>
<g>
</g>
<g>
</g>
<g>
</g>
<g>
</g>
<g>
</g>
<g>
</g>
<g>
</g>
<g>
</g>
<g>
</g>
<g>
</g>
<g>
</g>
<g>
</g>
<g>
</g>
<g>
</g>
</svg>
